PathFileType	4	(X/Y/Z)	C:\My Captures\DataSMARTClinic\0056~004 ID\0056~aa~STRATO3\Standing_ID_04_STRATO.trc
DataRate	CameraRate	NumFrames	NumMarkers	Units	OrigDataRate	OrigDataStartFrame	OrigNumFrames
250.00	250.00	10	22	mm	250.00	1942	2621
Frame#	Time	r.should			l.should			c7			r.asis			l.asis			sacrum			r.bar1			l.bar1			r.knee1			l.knee1			r.bar2			r.mall			l.bar2			l.mall			r.met			r.heel			l.heel			l.met			r.mallm			l.mallm			r.kneem			l.kneem			
		X1	Y1	Z1	X2	Y2	Z2	X3	Y3	Z3	X4	Y4	Z4	X5	Y5	Z5	X6	Y6	Z6	X7	Y7	Z7	X8	Y8	Z8	X9	Y9	Z9	X10	Y10	Z10	X11	Y11	Z11	X12	Y12	Z12	X13	Y13	Z13	X14	Y14	Z14	X15	Y15	Z15	X16	Y16	Z16	X17	Y17	Z17	X18	Y18	Z18	X19	Y19	Z19	X20	Y20	Z20	X21	Y21	Z21	X22	Y22	Z22	

1941	7.764000	874.894142	1253.669977	358.339071	861.752391	1257.531047	75.813308	782.027125	1314.053774	215.543777	978.658438	881.421328	341.731250	982.160687	874.286056	102.413185	736.881256	907.353759	207.169890	870.294929	801.306605	425.061405	888.978183	771.255314	24.132755	903.850019	463.575661	409.120470	885.695875	471.766472	78.429863	881.192327	402.213156	416.232735	830.119014	71.183555	437.962264	868.217349	397.805512	78.046963	853.816628	72.061457	91.607630	969.481468	43.487564	433.935702	778.055608	53.805642	390.643477	796.889007	58.221191	127.550676	985.316217	43.879714	114.843883	857.967854	69.373786	361.536741	866.573453	72.846234	168.974191	898.680389	447.497785	261.397541	857.898116	447.541296	221.546918	
1942	7.768000	874.858439	1253.679752	358.384579	861.720502	1257.546425	75.831175	782.032371	1314.053059	215.589732	978.596687	881.404817	341.755390	982.112765	874.276221	102.426149	736.918688	907.354414	207.188532	870.211422	801.310003	425.063670	888.971567	771.243691	24.143282	903.815389	463.582039	409.153581	885.712206	471.759558	78.425586	881.170273	402.212262	416.249067	830.098689	71.172178	437.984467	868.219078	397.801757	78.055933	853.800595	72.065666	91.619313	969.482899	43.498620	433.958888	778.061271	53.782221	390.661389	796.853423	58.215298	127.586171	985.288739	43.870125	114.865750	857.963324	69.368780	361.543655	866.559505	72.841153	169.004560	898.664594	447.495997	261.412203	857.900262	447.528511	221.561760	
1943	7.772000	874.833763	1253.684759	358.415931	861.694396	1257.567525	75.834669	781.976879	1314.061165	215.612620	978.541970	881.397843	341.778040	982.055247	874.255240	102.445520	736.917138	907.360911	207.187623	870.171547	801.318705	425.071090	888.961792	771.234751	24.137549	903.773963	463.574320	409.166276	885.708511	471.749544	78.422897	881.138325	402.211666	416.266263	830.067515	71.169026	437.985420	868.210316	397.797376	78.057632	853.808999	72.058432	91.617681	969.473600	43.497518	433.959335	778.043866	53.752065	390.657991	796.806395	58.236551	127.588838	985.258937	43.859340	114.873558	857.960403	69.367237	361.538053	866.527140	72.841570	169.018626	898.638010	447.479904	261.400700	857.890785	447.518438	221.556887	
1944	7.776000	874.761045	1253.679156	358.438730	861.667991	1257.580519	75.848989	781.918228	1314.069867	215.619206	978.502333	881.394625	341.778010	982.013941	874.258041	102.445677	736.891747	907.382131	207.173780	870.171189	801.310539	425.073415	888.996303	771.242619	24.108414	903.736591	463.571250	409.155607	885.692060	471.735954	78.413799	881.104350	402.204037	416.261733	830.032229	71.167752	437.964618	868.211448	397.796899	78.039996	853.794694	72.041102	91.619767	969.440520	43.483924	433.942795	778.010368	53.741977	390.646160	796.772599	58.245666	127.580702	985.237062	43.854184	114.861310	857.947946	69.361553	361.534804	866.502821	72.838180	169.010043	898.630202	447.481573	261.391759	857.874155	447.515875	221.549004	
1945	7.780000	874.742329	1253.693223	358.442426	861.661971	1257.596970	75.852223	781.877518	1314.065456	215.615988	978.505015	881.388903	341.765404	982.032359	874.282420	102.423549	736.868739	907.396793	207.149744	870.191157	801.305294	425.074399	889.027357	771.265447	24.086218	903.713763	463.564068	409.134865	885.681748	471.736431	78.409150	881.074429	402.197361	416.237533	830.020010	71.169242	437.944353	868.204772	397.796690	78.023747	853.775680	72.026297	91.609284	969.425440	43.483190	433.928490	777.985156	53.757507	390.616953	796.753287	58.257338	127.560422	985.223055	43.858211	114.845946	857.955873	69.366045	361.517191	866.479456	72.837681	168.987066	898.602486	447.462797	261.391580	857.858181	447.516203	221.528783	
1946	7.784000	874.785900	1253.723145	358.429968	861.670852	1257.611871	75.851560	781.882524	1314.066291	215.606868	978.541672	881.391585	341.749191	982.069850	874.284267	102.421775	736.858130	907.410860	207.135230	870.189846	801.295757	425.062954	889.039218	771.277368	24.071995	903.719902	463.563383	409.109384	885.655701	471.738964	78.400776	881.076992	402.208507	416.213900	830.011904	71.171299	437.931240	868.176699	397.794425	78.015201	853.762865	72.047703	91.598980	969.431877	43.499582	433.907807	777.945280	53.810216	390.608341	796.746373	58.258988	127.548277	985.216200	43.861795	114.829496	857.938945	69.368750	361.497849	866.482019	72.840199	168.955639	898.600042	447.468400	261.386037	857.839704	447.537541	221.502081	
1947	7.788000	874.829710	1253.761053	358.430952	861.694634	1257.617950	75.857937	781.920552	1314.073324	215.617061	978.595257	881.395698	341.725409	982.099235	874.271989	102.418393	736.846089	907.439470	207.133144	870.215297	801.292479	425.035894	889.045060	771.283865	24.074463	903.738141	463.578761	409.092635	885.638595	471.739531	78.400545	881.102741	402.225167	416.199028	830.041170	71.177743	437.919915	868.167579	397.796780	78.013636	853.756428	72.041750	91.612943	969.458163	43.522377	433.887929	777.944684	53.843476	390.591621	796.787143	58.257900	127.547130	985.232830	43.872323	114.820689	857.904553	69.357887	361.496389	866.518617	72.861224	168.938622	898.587167	447.486520	261.374563	857.832670	447.563618	221.487045	
1948	7.792000	874.889493	1253.784895	358.442307	861.728549	1257.635951	75.871468	781.965494	1314.080000	215.642184	978.628159	881.396770	341.705412	982.132137	874.257565	102.413848	736.847758	907.460749	207.146645	870.219886	801.296711	425.041676	889.066458	771.291971	24.072804	903.777361	463.601589	409.091234	885.628998	471.746624	78.405723	881.144047	402.243912	416.194469	830.078125	71.182884	437.915564	868.170619	397.801548	78.015938	853.749812	72.053611	91.627136	969.491720	43.529019	433.875144	777.943134	53.874061	390.589416	796.828926	58.271199	127.542168	985.263288	43.887030	114.820451	857.899845	69.358781	361.498266	866.553783	72.880581	168.937787	898.568630	447.473139	261.387855	857.831836	447.588950	221.489191	
1949	7.796000	874.925613	1253.789663	358.457267	861.752987	1257.641315	75.886466	781.997919	1314.092755	215.675086	978.629529	881.376386	341.700912	982.118428	874.236822	102.413662	736.850321	907.473922	207.156315	870.229125	801.290214	425.044566	889.106631	771.296501	24.058379	903.813004	463.607401	409.097433	885.648072	471.746475	78.411676	881.188869	402.247131	416.205287	830.103636	71.184725	437.922060	868.183374	397.800624	78.019813	853.787303	72.060138	91.618270	969.518185	43.525286	433.881402	777.971208	53.880420	390.595883	796.864092	58.274403	127.553806	985.296547	43.892883	114.818111	857.910514	69.352031	361.498475	866.588354	72.878182	168.951973	898.623049	447.470725	261.384070	857.872605	447.589666	221.494615	
1950	7.800000	874.932289	1253.784657	358.479738	861.762464	1257.645607	75.907692	782.033205	1314.097166	215.707570	978.634179	881.344557	341.703176	982.116699	874.220490	102.435619	736.865819	907.470703	207.158893	870.246768	801.274776	425.069332	889.107645	771.288872	24.061428	903.832793	463.591427	409.115821	885.660291	471.743107	78.412265	881.188035	402.235806	416.219324	830.132365	71.177833	437.934875	868.189573	397.790730	78.020349	853.800297	72.027743	91.620944	969.538510	43.514177	433.896452	778.013110	53.868655	390.589476	796.879649	58.264542	127.569035	985.311985	43.879859	114.835054	857.933164	69.351681	361.509204	866.603613	72.859213	168.972969	898.637712	447.465897	261.385143	857.917368	447.581649	221.488625	
